# xmcd CD database file
#
# Track frame offsets:
#	150
#	7080
#	13238
#	19353
#	28386
#	34945
#	42306
#	47284
#	52479
#
# Disc length: 791 seconds
#
# Revision: 3
# Processed by: cddbd v1.5.2PL0 Copyright (c) Steve Scherf et al.
# Submitted via: CDex 1.70beta3
#
DISCID=7d031509
DTITLE=おとのおもちゃばこ - ゆらゆらっこ
DYEAR=2010
DGENRE=blues
TTITLE0=みんなきれい
TTITLE1=にこにこぱんやさん
TTITLE2=おふとんトントン
TTITLE3=ぷっかぷっかぷー
TTITLE4=あかいひも
TTITLE5=ペッタンぽん！
TTITLE6=でんしゃははしるよデンデン・デ・デ・デ
TTITLE7=ちゅうりっぷ
TTITLE8=ちょうちょう
EXTD=YEAR: 2010
EXTT0=
EXTT1=
EXTT2=
EXTT3=
EXTT4=
EXTT5=
EXTT6=
EXTT7=
EXTT8=
PLAYORDER=
